# WaveFront *.obj file (generated by Autodesk ATF)

mtllib body1_visual.mtl

g Body1

v 1.882348 -37.100000 19.470588
v 2.800450 -37.100000 20.143874
v 3.491676 -37.100000 21.048547
v 3.900026 -37.100000 22.111314
v 3.992419 -37.100000 23.246078
v 3.761370 -37.100000 24.360906
v 3.225596 -37.100000 25.365481
v 2.428504 -37.100000 26.178419
v 1.434668 -37.100000 26.733861
v 0.324603 -37.100000 26.986807
v -0.811759 -37.100000 26.916766
v -1.882358 -37.100000 26.529412
v -2.800459 -37.100000 25.856126
v -3.491685 -37.100000 24.951453
v -3.900035 -37.100000 23.888686
v -3.992428 -37.100000 22.753922
v -3.761379 -37.100000 21.639094
v -3.225605 -37.100000 20.634519
v -2.428513 -37.100000 19.821581
v -1.434677 -37.100000 19.266139
v -0.324613 -37.100000 19.013193
v 0.811750 -37.100000 19.083234
v -0.000005 -35.693416 27.000000
v 1.126926 -35.693416 26.837972
v 2.162559 -35.693416 26.365014
v 3.022994 -35.693416 25.619443
v 3.638523 -35.693416 24.661660
v 3.959281 -35.693416 23.569259
v 3.959281 -35.693416 22.430741
v 3.638523 -35.693416 21.338340
v 3.022994 -35.693416 20.380557
v 2.162559 -35.693416 19.634986
v 1.126926 -35.693416 19.162028
v -0.000005 -35.693416 19.000000
v -1.126935 -35.693416 19.162028
v -2.162568 -35.693416 19.634986
v -3.023003 -35.693416 20.380557
v -3.638533 -35.693416 21.338340
v -3.959290 -35.693416 22.430741
v -3.959290 -35.693416 23.569259
v -3.638533 -35.693416 24.661660
v -3.023003 -35.693416 25.619443
v -2.162568 -35.693416 26.365014
v -1.126935 -35.693416 26.837972
v 30.000000 37.100000 40.000000
v 30.000000 37.100000 0.000000
v -30.000000 37.100000 0.000000
v -30.000000 37.100000 40.000000
v -30.000000 -37.100000 40.000000
v -30.000000 -37.100000 0.000000
v 30.000000 -37.100000 0.000000
v 30.000000 -37.100000 40.000000
vt 0.593416 11.423973 0.000000
vt 2.000000 12.241405 0.000000
vt 0.593416 12.566371 0.000000
vt 0.593416 -12.566371 0.000000
vt 2.000000 -12.891336 0.000000
vt 2.000000 -11.748939 0.000000
vt 0.593416 -11.423973 0.000000
vt 2.000000 -10.606541 0.000000
vt 0.593416 -10.281576 0.000000
vt 2.000000 -9.464144 0.000000
vt 0.593416 -9.139179 0.000000
vt 2.000000 -8.321747 0.000000
vt 0.593416 -7.996781 0.000000
vt 2.000000 -7.179349 0.000000
vt 0.593416 -6.854384 0.000000
vt 2.000000 -6.036952 0.000000
vt 0.593416 -5.711987 0.000000
vt 2.000000 -4.894555 0.000000
vt 0.593416 -4.569589 0.000000
vt 2.000000 -3.752157 0.000000
vt 0.593416 -3.427192 0.000000
vt 2.000000 -2.609760 0.000000
vt 0.593416 -2.284795 0.000000
vt 2.000000 -1.467363 0.000000
vt 0.593416 -1.142397 0.000000
vt 2.000000 -0.324965 0.000000
vt 0.593416 0.000000 0.000000
vt 2.000000 0.817432 0.000000
vt 0.593416 1.142397 0.000000
vt 2.000000 1.959829 0.000000
vt 0.593416 2.284795 0.000000
vt 2.000000 3.102227 0.000000
vt 0.593416 3.427192 0.000000
vt 2.000000 4.244624 0.000000
vt 0.593416 4.569589 0.000000
vt 2.000000 5.387021 0.000000
vt 0.593416 5.711987 0.000000
vt 2.000000 6.529419 0.000000
vt 0.593416 6.854384 0.000000
vt 2.000000 7.671816 0.000000
vt 0.593416 7.996781 0.000000
vt 2.000000 8.814213 0.000000
vt 0.593416 9.139179 0.000000
vt 2.000000 9.956611 0.000000
vt 0.593416 10.281576 0.000000
vt 2.000000 11.099008 0.000000
vt -1.126930 7.837972 0.000000
vt 0.000000 -0.000000 0.000000
vt 0.000000 8.000000 0.000000
vt 1.126930 0.162028 0.000000
vt 1.126930 7.837972 0.000000
vt 2.162563 0.634986 0.000000
vt 2.162563 7.365014 0.000000
vt 3.022998 1.380557 0.000000
vt 3.022998 6.619443 0.000000
vt 3.638528 2.338340 0.000000
vt 3.638528 5.661660 0.000000
vt 3.959286 3.430741 0.000000
vt 3.959286 4.569259 0.000000
vt -2.162563 7.365014 0.000000
vt -3.022998 6.619443 0.000000
vt -3.638528 5.661660 0.000000
vt -3.959286 4.569259 0.000000
vt -3.959286 3.430741 0.000000
vt -3.638528 2.338340 0.000000
vt -3.022998 1.380557 0.000000
vt -2.162563 0.634986 0.000000
vt -1.126930 0.162028 0.000000
vt 5.000000 60.000000 0.000000
vt -35.000000 60.000000 0.000000
vt 5.000000 0.000000 0.000000
vt -35.000000 0.000000 0.000000
vt 14.856126 -27.199550 0.000000
vt 15.529412 -28.117652 0.000000
vt 35.000000 0.000000 0.000000
vt 15.916766 -29.188250 0.000000
vt 15.986807 -30.324613 0.000000
vt 35.000000 -60.000000 0.000000
vt 15.733861 -31.434677 0.000000
vt 15.178419 -32.428513 0.000000
vt 14.365481 -33.225605 0.000000
vt 13.360906 -33.761379 0.000000
vt 12.246078 -33.992428 0.000000
vt -5.000000 -60.000000 0.000000
vt 11.111314 -33.900035 0.000000
vt 10.048547 -33.491685 0.000000
vt 9.143874 -32.800459 0.000000
vt 8.470588 -31.882358 0.000000
vt 8.083234 -30.811759 0.000000
vt 8.013193 -29.675397 0.000000
vt -5.000000 0.000000 0.000000
vt 8.266139 -28.565332 0.000000
vt 8.821581 -27.571496 0.000000
vt 9.634519 -26.774404 0.000000
vt 10.639094 -26.238630 0.000000
vt 11.753922 -26.007581 0.000000
vt 12.888686 -26.099974 0.000000
vt 13.951453 -26.508324 0.000000
vt -60.000000 3.800000 0.000000
vt 0.000000 3.800000 0.000000
vt -60.000000 78.000000 0.000000
vt 0.000000 78.000000 0.000000
vt 4.000000 -5.000000 0.000000
vt 78.200000 -5.000000 0.000000
vt 4.000000 35.000000 0.000000
vt 78.200000 35.000000 0.000000
vt 0.000000 3.800000 0.000000
vt 60.000000 3.800000 0.000000
vt 0.000000 78.000000 0.000000
vt 60.000000 78.000000 0.000000
vt 69.200000 35.000000 0.000000
vt -5.000000 35.000000 0.000000
vt 69.200000 -5.000000 0.000000
vt -5.000000 -5.000000 0.000000
vn -0.700114 0.000000 0.714031
vn -0.540641 0.000000 0.841254
vn -0.470588 0.000000 0.882353
vn -0.281733 0.000000 0.959493
vn -0.202939 0.000000 0.979191
vn -0.000000 0.000000 1.000000
vn 0.081152 -0.000000 0.996702
vn 0.281733 -0.000000 0.959493
vn 0.358668 -0.000000 0.933465
vn 0.540641 -0.000000 0.841254
vn 0.607127 -0.000000 0.794605
vn 0.755750 -0.000000 0.654861
vn 0.806400 -0.000000 0.591370
vn 0.909632 -0.000000 0.415415
vn 0.940344 -0.000000 0.340226
vn 0.989821 -0.000000 0.142315
vn 0.998106 -0.000000 0.061519
vn 0.989821 0.000000 -0.142315
vn 0.975008 0.000000 -0.222171
vn 0.909632 0.000000 -0.415415
vn 0.872920 0.000000 -0.487863
vn 0.755750 0.000000 -0.654861
vn 0.700114 0.000000 -0.714031
vn 0.540641 0.000000 -0.841254
vn 0.470588 0.000000 -0.882353
vn 0.281733 0.000000 -0.959493
vn 0.202939 0.000000 -0.979191
vn -0.000000 0.000000 -1.000000
vn -0.081152 0.000000 -0.996702
vn -0.281733 0.000000 -0.959493
vn -0.358668 0.000000 -0.933465
vn -0.540641 0.000000 -0.841254
vn -0.607127 0.000000 -0.794605
vn -0.755750 0.000000 -0.654861
vn -0.806400 0.000000 -0.591370
vn -0.909632 0.000000 -0.415415
vn -0.940344 0.000000 -0.340226
vn -0.989821 0.000000 -0.142315
vn -0.998106 0.000000 -0.061519
vn -0.989821 0.000000 0.142315
vn -0.975008 0.000000 0.222171
vn -0.909632 0.000000 0.415415
vn -0.872920 0.000000 0.487863
vn -0.755750 0.000000 0.654861
vn 0.000000 -1.000000 -0.000000
vn 0.000000 -1.000000 -0.000000
vn 0.000000 -1.000000 -0.000000
vn 0.000000 -1.000000 -0.000000
vn 0.000000 -1.000000 -0.000000
vn 0.000000 -1.000000 -0.000000
vn 0.000000 -1.000000 -0.000000
vn 0.000000 -1.000000 -0.000000
vn 0.000000 -1.000000 -0.000000
vn 0.000000 -1.000000 -0.000000
vn 0.000000 -1.000000 -0.000000
vn 0.000000 -1.000000 -0.000000
vn 0.000000 -1.000000 -0.000000
vn 0.000000 -1.000000 -0.000000
vn 0.000000 -1.000000 -0.000000
vn 0.000000 -1.000000 -0.000000
vn 0.000000 -1.000000 -0.000000
vn 0.000000 -1.000000 -0.000000
vn 0.000000 -1.000000 -0.000000
vn 0.000000 -1.000000 -0.000000
vn 0.000000 -1.000000 -0.000000
vn 0.000000 -1.000000 -0.000000
vn 0.000000 1.000000 0.000000
vn 0.000000 1.000000 0.000000
vn 0.000000 1.000000 0.000000
vn 0.000000 1.000000 0.000000
vn -0.000000 -1.000000 -0.000000
vn -0.000000 -1.000000 -0.000000
vn -0.000000 -1.000000 -0.000000
vn -0.000000 -1.000000 -0.000000
vn -0.000000 -1.000000 -0.000000
vn -0.000000 -1.000000 -0.000000
vn -0.000000 -1.000000 -0.000000
vn -0.000000 -1.000000 -0.000000
vn -0.000000 -1.000000 -0.000000
vn -0.000000 -1.000000 -0.000000
vn -0.000000 -1.000000 -0.000000
vn -0.000000 -1.000000 -0.000000
vn -0.000000 -1.000000 -0.000000
vn -0.000000 -1.000000 -0.000000
vn -0.000000 -1.000000 -0.000000
vn -0.000000 -1.000000 -0.000000
vn -0.000000 -1.000000 -0.000000
vn -0.000000 -1.000000 -0.000000
vn -0.000000 -1.000000 -0.000000
vn -0.000000 -1.000000 -0.000000
vn -0.000000 -1.000000 -0.000000
vn -0.000000 -1.000000 -0.000000
vn -0.000000 -1.000000 -0.000000
vn -0.000000 -1.000000 -0.000000
vn -0.000000 -1.000000 -0.000000
vn -0.000000 -1.000000 -0.000000
vn 0.000000 0.000000 -1.000000
vn 0.000000 0.000000 -1.000000
vn 0.000000 0.000000 -1.000000
vn 0.000000 0.000000 -1.000000
vn -1.000000 0.000000 0.000000
vn -1.000000 0.000000 0.000000
vn -1.000000 0.000000 0.000000
vn -1.000000 0.000000 0.000000
vn 0.000000 0.000000 1.000000
vn 0.000000 0.000000 1.000000
vn 0.000000 0.000000 1.000000
vn 0.000000 0.000000 1.000000
vn 1.000000 0.000000 0.000000
vn 1.000000 0.000000 0.000000
vn 1.000000 0.000000 0.000000
vn 1.000000 0.000000 0.000000
usemtl Opaque(245,245,245)
f 2/1/1 32/2/2 1/3/3
f 1/4/3 32/5/2 33/6/4
f 1/4/3 33/6/4 22/7/5
f 22/7/5 33/6/4 34/8/6
f 22/7/5 34/8/6 21/9/7
f 21/9/7 34/8/6 35/10/8
f 21/9/7 35/10/8 20/11/9
f 20/11/9 35/10/8 36/12/10
f 20/11/9 36/12/10 19/13/11
f 19/13/11 36/12/10 37/14/12
f 19/13/11 37/14/12 18/15/13
f 18/15/13 37/14/12 38/16/14
f 18/15/13 38/16/14 17/17/15
f 17/17/15 38/16/14 39/18/16
f 17/17/15 39/18/16 16/19/17
f 16/19/17 39/18/16 40/20/18
f 16/19/17 40/20/18 15/21/19
f 15/21/19 40/20/18 41/22/20
f 15/21/19 41/22/20 14/23/21
f 14/23/21 41/22/20 42/24/22
f 14/23/21 42/24/22 13/25/23
f 13/25/23 42/24/22 43/26/24
f 13/25/23 43/26/24 12/27/25
f 12/27/25 43/26/24 44/28/26
f 12/27/25 44/28/26 11/29/27
f 11/29/27 44/28/26 23/30/28
f 11/29/27 23/30/28 10/31/29
f 10/31/29 23/30/28 24/32/30
f 10/31/29 24/32/30 9/33/31
f 9/33/31 24/32/30 25/34/32
f 9/33/31 25/34/32 8/35/33
f 8/35/33 25/34/32 26/36/34
f 8/35/33 26/36/34 7/37/35
f 7/37/35 26/36/34 27/38/36
f 7/37/35 27/38/36 6/39/37
f 6/39/37 27/38/36 28/40/38
f 6/39/37 28/40/38 5/41/39
f 5/41/39 28/40/38 29/42/40
f 5/41/39 29/42/40 4/43/41
f 4/43/41 29/42/40 30/44/42
f 4/43/41 30/44/42 3/45/43
f 3/45/43 30/44/42 31/46/44
f 3/45/43 31/46/44 2/1/1
f 2/1/1 31/46/44 32/2/2
f 44/47/45 34/48/46 23/49/47
f 23/49/47 34/48/46 33/50/48
f 23/49/47 33/50/48 24/51/49
f 24/51/49 33/50/48 32/52/50
f 24/51/49 32/52/50 25/53/51
f 25/53/51 32/52/50 31/54/52
f 25/53/51 31/54/52 26/55/53
f 26/55/53 31/54/52 30/56/54
f 26/55/53 30/56/54 27/57/55
f 27/57/55 30/56/54 29/58/56
f 27/57/55 29/58/56 28/59/57
f 44/47/45 43/60/58 34/48/46
f 34/48/46 43/60/58 42/61/59
f 34/48/46 42/61/59 41/62/60
f 41/62/60 40/63/61 34/48/46
f 34/48/46 40/63/61 39/64/62
f 34/48/46 39/64/62 38/65/63
f 38/65/63 37/66/64 34/48/46
f 34/48/46 37/66/64 36/67/65
f 34/48/46 36/67/65 35/68/66
f 45/69/67 46/70/68 48/71/69
f 48/71/69 46/70/68 47/72/70
f 2/73/71 1/74/72 51/75/73
f 51/75/73 1/74/72 22/76/74
f 51/75/73 22/76/74 21/77/75
f 51/75/73 21/77/75 50/78/76
f 50/78/76 21/77/75 20/79/77
f 50/78/76 20/79/77 19/80/78
f 19/80/78 18/81/79 50/78/76
f 50/78/76 18/81/79 17/82/80
f 50/78/76 17/82/80 16/83/81
f 50/78/76 16/83/81 49/84/82
f 49/84/82 16/83/81 15/85/83
f 49/84/82 15/85/83 14/86/84
f 14/86/84 13/87/85 49/84/82
f 49/84/82 13/87/85 12/88/86
f 49/84/82 12/88/86 11/89/87
f 11/89/87 10/90/88 49/84/82
f 49/84/82 10/90/88 52/91/89
f 52/91/89 10/90/88 9/92/90
f 52/91/89 9/92/90 8/93/91
f 8/93/91 7/94/92 52/91/89
f 52/91/89 7/94/92 6/95/93
f 52/91/89 6/95/93 5/96/94
f 5/96/94 4/97/95 52/91/89
f 52/91/89 4/97/95 51/75/73
f 51/75/73 4/97/95 3/98/96
f 51/75/73 3/98/96 2/73/71
f 51/99/97 50/100/98 46/101/99
f 46/101/99 50/100/98 47/102/100
f 49/103/101 48/104/102 50/105/103
f 50/105/103 48/104/102 47/106/104
f 49/107/105 52/108/106 48/109/107
f 48/109/107 52/108/106 45/110/108
f 51/111/109 46/112/110 52/113/111
f 52/113/111 46/112/110 45/114/112
# 52 vertices
# 114 texture params
# 112 normals
# 100 facets

# 1 groups
